# xmcd
#
# Track frame offsets:
#	150
#	23335
#	34333
#	52536
#	67804
#	82327
#	97475
#	116482
#	131659
#	150808
#	166533
#	184239
#
# Disc length: 2576 seconds
# Revision: 0
# Processed by: cddbd v1.5.2PL0 Copyright (c) Steve Scherf et al.
# Submitted via: dBpowerAMP V12.0
#
DISCID=8b0a0e0c
DTITLE=The Breakmen - When You Leave Town
DYEAR=2009
DGENRE=Americana
TTITLE0=When You Leave Town
TTITLE1=Long Time Mama
TTITLE2=Hospital Moon
TTITLE3=That's Where I Lay Down
TTITLE4=Play Me Another One
TTITLE5=I Belong to That Band
TTITLE6=Brookmere
TTITLE7=Jethro's Chocolates
TTITLE8=Racing in the Street
TTITLE9=Leaving California
TTITLE10=Cold Nights
TTITLE11=Come and Gone
EXTD=
EXTT0=
EXTT1=
EXTT2=
EXTT3=
EXTT4=
EXTT5=
EXTT6=
EXTT7=
EXTT8=
EXTT9=
EXTT10=
EXTT11=
PLAYORDER=
